# xmcd
#
# Track frame offsets:
#	150
#	10177
#	22372
#	34725
#	46657
#	56472
#	69337
#	79570
#	91265
#	103682
#	113600
#	129115
#	143490
#	157815
#	170832
#	184290
#	196477
#	206772
#	220697
#	231297
#	244325
#
# Disc length: 3393 seconds
#
# Revision: 1
# Processed by: cddbd v1.5.2PL0 Copyright (c) Steve Scherf et al.
# Submitted via: EasyCDDAExtractor 8.2.3.1
#
DISCID=170d3f15
DTITLE=Chet Atkins and Jerry Reed - Me and Chet -72 - Me and Jerry -70
DYEAR=197
DGENRE=Instrumental
TTITLE0=Jerry's Breakdown
TTITLE1=Limehouse Blues
TTITLE2=Liebestraum
TTITLE3=Serenade To Summertime
TTITLE4=Nashtown Ville
TTITLE5=Mystery Train
TTITLE6=Mad Russian
TTITLE7=Flying South
TTITLE8=Good Stuff
TTITLE9=All I Ever Need Is You
TTITLE10=I Saw The Light
TTITLE11=Tennessee Stud
TTITLE12=Bridge Over Troubled Water
TTITLE13=MacArthur Park
TTITLE14=Old Man River
TTITLE15=Nut Sundae
TTITLE16=Cannonball Rag
TTITLE17=Wreck Of The John B
TTITLE18=Stump Water
TTITLE19=January, February, March
TTITLE20=Something
EXTD=One Way Records Inc
EXTT0=
EXTT1=
EXTT2=
EXTT3=
EXTT4=
EXTT5=
EXTT6=
EXTT7=
EXTT8=
EXTT9=
EXTT10=
EXTT11=
EXTT12=
EXTT13=
EXTT14=
EXTT15=
EXTT16=
EXTT17=
EXTT18=
EXTT19=
EXTT20=
PLAYORDER=
